<?xml version="1.0" encoding="UTF-8" standalone="no"?>
<svg
   id="Ebene_1"
   data-name="Ebene 1"
   viewBox="0 0 568.03 386.78"
   version="1.1"
   sodipodi:docname="ASIGHT_Trademark_CMYK.svg"
   inkscape:version="1.4 (86a8ad7, 2024-10-11)"
   inkscape:export-filename="ASIGHT_Trademark_CMYK.jpg"
   inkscape:export-xdpi="96"
   inkscape:export-ydpi="96"
   xmlns:inkscape="http://www.inkscape.org/namespaces/inkscape"
   xmlns:sodipodi="http://sodipodi.sourceforge.net/DTD/sodipodi-0.dtd"
   xmlns="http://www.w3.org/2000/svg"
   xmlns:svg="http://www.w3.org/2000/svg">
  <sodipodi:namedview
     id="namedview9"
     pagecolor="#ffffff"
     bordercolor="#000000"
     borderopacity="0.25"
     inkscape:showpageshadow="2"
     inkscape:pageopacity="0.0"
     inkscape:pagecheckerboard="0"
     inkscape:deskcolor="#d1d1d1"
     inkscape:zoom="3.1878587"
     inkscape:cx="284.04646"
     inkscape:cy="193.39"
     inkscape:window-width="2880"
     inkscape:window-height="1514"
     inkscape:window-x="2869"
     inkscape:window-y="-11"
     inkscape:window-maximized="1"
     inkscape:current-layer="Ebene_1" />
  <defs
     id="defs1">
    <style
       id="style1">
      .cls-1 {
        fill: #4c5f76;
      }

      .cls-2 {
        fill: #c0a78f;
      }
    </style>
  </defs>
  <polygon
     class="cls-2"
     points="367.25 317.27 499.9 234.57 450.94 244.15 367.25 317.27"
     id="polygon1"
     style="fill:#afdde9;fill-opacity:1" />
  <polygon
     class="cls-2"
     points="450.5,156.1 469.93,147.82 499.9,101.89 473.77,114.93 "
     id="polygon2"
     style="fill:#4b5f78;fill-opacity:1" />
  <polygon
     class="cls-2"
     points="411.13,225.72 420.84,223.06 443.89,187.73 429.84,192.63 "
     id="polygon3"
     style="fill:#4b5f78;fill-opacity:1" />
  <polygon
     class="cls-2"
     points="394.46,255.21 359.36,317.29 400.65,253.99 "
     id="polygon4"
     style="fill:#4b5f78;fill-opacity:1" />
  <polygon
     class="cls-2"
     points="411.91,251.79 362.55,317.27 425.3,249.17 "
     id="polygon5"
     style="fill:#3aa6b9;fill-opacity:1" />
  <polygon
     class="cls-2"
     points="436.88,218.66 459.01,212.59 499.9,168.21 466,180.03 "
     id="polygon6"
     style="fill:#3aa6b9;fill-opacity:1" />
  <polygon
     class="cls-1"
     points="499.9 68.72 68.35 317.29 499.9 101.89 499.9 68.72"
     id="polygon7" />
  <polygon
     class="cls-1"
     points="499.9 168.21 499.9 135.05 72.17 317.27 499.9 168.21"
     id="polygon8"
     style="fill:#3aa6b9;fill-opacity:1" />
  <polygon
     class="cls-1"
     points="499.9 201.38 77.32 317.27 499.9 234.57 499.9 201.38"
     id="polygon9"
     style="fill:#afdde9;fill-opacity:1" />
</svg>
