<?xml version="1.0" encoding="UTF-8" standalone="no"?>
<!DOCTYPE svg PUBLIC "-//W3C//DTD SVG 1.1//EN" "http://www.w3.org/Graphics/SVG/1.1/DTD/svg11.dtd">
<svg xmlns="http://www.w3.org/2000/svg" version="1.1" viewBox="0.00 0.00 1024.00 1024.00">
<g stroke-width="2.00" fill="none" stroke-linecap="butt">
<path stroke="#d7dfdc" vector-effect="non-scaling-stroke" d="
  M 441.39 0.00
  Q 418.08 2.84 412.09 3.66
  C 378.33 8.27 348.21 18.02 315.83 32.33
  C 293.12 42.37 270.19 52.70 252.64 66.57
  Q 231.61 83.18 218.43 92.80
  C 206.85 101.25 197.79 109.32 189.98 118.62
  Q 176.18 135.08 171.63 139.42
  Q 158.75 151.69 152.39 158.09
  Q 136.34 174.28 117.49 197.50
  C 103.98 214.15 94.82 224.92 85.68 239.24
  C 64.76 271.99 47.21 306.21 34.83 343.04
  Q 16.51 397.55 12.53 456.24
  Q 11.52 471.08 11.51 501.69
  Q 11.50 522.81 11.13 547.18
  Q 10.69 576.63 15.47 605.67
  Q 18.10 621.62 23.37 644.82
  Q 28.60 667.88 33.76 683.40
  Q 49.96 732.18 77.26 775.43
  Q 97.95 808.19 122.86 839.50
  Q 159.58 885.66 203.39 918.31
  Q 224.76 934.25 246.89 948.87
  Q 252.19 952.37 258.22 957.45
  Q 259.58 958.59 260.62 960.28
  A 0.99 0.99 0.0 0 1 260.27 961.65
  L 259.38 962.16
  A 1.14 1.14 0.0 0 0 259.25 964.04
  Q 267.23 970.34 278.16 976.21
  C 291.35 983.28 307.65 991.09 319.59 996.12
  Q 340.08 1004.75 356.22 1008.55
  Q 377.64 1013.60 399.57 1017.95
  C 416.40 1021.28 428.99 1022.40 448.13 1024.00"
/>
<path stroke="#d7dfdc" vector-effect="non-scaling-stroke" d="
  M 643.11 0.00
  Q 661.27 1.69 679.39 3.55
  Q 697.12 5.37 712.17 11.79
  Q 715.08 13.04 717.00 14.48
  A 0.28 0.27 -30.6 0 1 716.87 14.97
  Q 715.80 15.12 712.53 14.22
  Q 701.53 11.20 695.26 10.01
  Q 692.01 9.40 689.03 9.74
  A 1.34 1.34 0.0 0 0 687.86 11.31
  C 688.24 13.46 693.77 17.22 695.63 18.49
  Q 708.64 27.37 723.23 35.87
  C 735.06 42.75 754.66 52.65 767.78 60.48
  C 792.71 75.36 816.13 92.33 839.49 111.44
  Q 854.94 124.08 866.36 135.44
  C 885.25 154.22 904.26 175.45 921.14 197.87
  Q 958.85 247.93 984.38 305.17
  Q 996.51 332.38 1006.98 360.26
  Q 1016.85 386.54 1021.09 413.90
  Q 1022.61 423.69 1024.00 433.50"
/>
<path stroke="#d7dfdc" vector-effect="non-scaling-stroke" d="
  M 1024.00 587.99
  Q 1020.43 600.86 1016.33 613.57
  Q 1011.97 627.05 1010.20 633.69
  Q 1006.50 647.55 1004.35 653.90
  C 998.93 669.82 993.78 680.46 985.05 700.26
  Q 978.58 714.93 975.09 722.00
  C 959.60 753.31 942.21 784.74 920.84 813.65
  Q 902.19 838.89 886.16 856.97
  Q 852.36 895.07 807.70 928.41
  C 793.27 939.19 783.98 944.99 772.09 954.70
  Q 762.03 962.91 758.57 965.69
  Q 747.26 974.78 733.00 982.20
  Q 717.82 990.10 687.79 1002.34
  C 670.66 1009.33 655.40 1013.03 637.28 1016.21
  Q 613.52 1020.37 595.39 1022.74
  Q 588.19 1023.69 579.85 1023.62
  Q 543.25 1023.35 502.06 1023.33
  Q 474.30 1023.31 456.50 1024.00"
/>
</g>
<path fill="#dce2df" d="
  M 643.11 0.00
  Q 661.27 1.69 679.39 3.55
  Q 697.12 5.37 712.17 11.79
  Q 715.08 13.04 717.00 14.48
  A 0.28 0.27 -30.6 0 1 716.87 14.97
  Q 715.80 15.12 712.53 14.22
  Q 701.53 11.20 695.26 10.01
  Q 692.01 9.40 689.03 9.74
  A 1.34 1.34 0.0 0 0 687.86 11.31
  C 688.24 13.46 693.77 17.22 695.63 18.49
  Q 708.64 27.37 723.23 35.87
  C 735.06 42.75 754.66 52.65 767.78 60.48
  C 792.71 75.36 816.13 92.33 839.49 111.44
  Q 854.94 124.08 866.36 135.44
  C 885.25 154.22 904.26 175.45 921.14 197.87
  Q 958.85 247.93 984.38 305.17
  Q 996.51 332.38 1006.98 360.26
  Q 1016.85 386.54 1021.09 413.90
  Q 1022.61 423.69 1024.00 433.50
  L 1024.00 587.99
  Q 1020.43 600.86 1016.33 613.57
  Q 1011.97 627.05 1010.20 633.69
  Q 1006.50 647.55 1004.35 653.90
  C 998.93 669.82 993.78 680.46 985.05 700.26
  Q 978.58 714.93 975.09 722.00
  C 959.60 753.31 942.21 784.74 920.84 813.65
  Q 902.19 838.89 886.16 856.97
  Q 852.36 895.07 807.70 928.41
  C 793.27 939.19 783.98 944.99 772.09 954.70
  Q 762.03 962.91 758.57 965.69
  Q 747.26 974.78 733.00 982.20
  Q 717.82 990.10 687.79 1002.34
  C 670.66 1009.33 655.40 1013.03 637.28 1016.21
  Q 613.52 1020.37 595.39 1022.74
  Q 588.19 1023.69 579.85 1023.62
  Q 543.25 1023.35 502.06 1023.33
  Q 474.30 1023.31 456.50 1024.00
  L 448.13 1024.00
  C 428.99 1022.40 416.40 1021.28 399.57 1017.95
  Q 377.64 1013.60 356.22 1008.55
  Q 340.08 1004.75 319.59 996.12
  C 307.65 991.09 291.35 983.28 278.16 976.21
  Q 267.23 970.34 259.25 964.04
  A 1.14 1.14 0.0 0 1 259.38 962.16
  L 260.27 961.65
  A 0.99 0.99 0.0 0 0 260.62 960.28
  Q 259.58 958.59 258.22 957.45
  Q 252.19 952.37 246.89 948.87
  Q 224.76 934.25 203.39 918.31
  Q 159.58 885.66 122.86 839.50
  Q 97.95 808.19 77.26 775.43
  Q 49.96 732.18 33.76 683.40
  Q 28.60 667.88 23.37 644.82
  Q 18.10 621.62 15.47 605.67
  Q 10.69 576.63 11.13 547.18
  Q 11.50 522.81 11.51 501.69
  Q 11.52 471.08 12.53 456.24
  Q 16.51 397.55 34.83 343.04
  C 47.21 306.21 64.76 271.99 85.68 239.24
  C 94.82 224.92 103.98 214.15 117.49 197.50
  Q 136.34 174.28 152.39 158.09
  Q 158.75 151.69 171.63 139.42
  Q 176.18 135.08 189.98 118.62
  C 197.79 109.32 206.85 101.25 218.43 92.80
  Q 231.61 83.18 252.64 66.57
  C 270.19 52.70 293.12 42.37 315.83 32.33
  C 348.21 18.02 378.33 8.27 412.09 3.66
  Q 418.08 2.84 441.39 0.00
  L 643.11 0.00
  Z"
/>
<g fill="#d1dcd9">
<path d="
  M 441.39 0.00
  Q 418.08 2.84 412.09 3.66
  C 378.33 8.27 348.21 18.02 315.83 32.33
  C 293.12 42.37 270.19 52.70 252.64 66.57
  Q 231.61 83.18 218.43 92.80
  C 206.85 101.25 197.79 109.32 189.98 118.62
  Q 176.18 135.08 171.63 139.42
  Q 158.75 151.69 152.39 158.09
  Q 136.34 174.28 117.49 197.50
  C 103.98 214.15 94.82 224.92 85.68 239.24
  C 64.76 271.99 47.21 306.21 34.83 343.04
  Q 16.51 397.55 12.53 456.24
  Q 11.52 471.08 11.51 501.69
  Q 11.50 522.81 11.13 547.18
  Q 10.69 576.63 15.47 605.67
  Q 18.10 621.62 23.37 644.82
  Q 28.60 667.88 33.76 683.40
  Q 49.96 732.18 77.26 775.43
  Q 97.95 808.19 122.86 839.50
  Q 159.58 885.66 203.39 918.31
  Q 224.76 934.25 246.89 948.87
  Q 252.19 952.37 258.22 957.45
  Q 259.58 958.59 260.62 960.28
  A 0.99 0.99 0.0 0 1 260.27 961.65
  L 259.38 962.16
  A 1.14 1.14 0.0 0 0 259.25 964.04
  Q 267.23 970.34 278.16 976.21
  C 291.35 983.28 307.65 991.09 319.59 996.12
  Q 340.08 1004.75 356.22 1008.55
  Q 377.64 1013.60 399.57 1017.95
  C 416.40 1021.28 428.99 1022.40 448.13 1024.00
  L 0.00 1024.00
  L 0.00 0.00
  L 441.39 0.00
  Z"
/>
<path d="
  M 1024.00 0.00
  L 1024.00 433.50
  Q 1022.61 423.69 1021.09 413.90
  Q 1016.85 386.54 1006.98 360.26
  Q 996.51 332.38 984.38 305.17
  Q 958.85 247.93 921.14 197.87
  C 904.26 175.45 885.25 154.22 866.36 135.44
  Q 854.94 124.08 839.49 111.44
  C 816.13 92.33 792.71 75.36 767.78 60.48
  C 754.66 52.65 735.06 42.75 723.23 35.87
  Q 708.64 27.37 695.63 18.49
  C 693.77 17.22 688.24 13.46 687.86 11.31
  A 1.34 1.34 0.0 0 1 689.03 9.74
  Q 692.01 9.40 695.26 10.01
  Q 701.53 11.20 712.53 14.22
  Q 715.80 15.12 716.87 14.97
  A 0.28 0.27 -30.6 0 0 717.00 14.48
  Q 715.08 13.04 712.17 11.79
  Q 697.12 5.37 679.39 3.55
  Q 661.27 1.69 643.11 0.00
  L 1024.00 0.00
  Z"
/>
<path d="
  M 1024.00 587.99
  L 1024.00 1024.00
  L 456.50 1024.00
  Q 474.30 1023.31 502.06 1023.33
  Q 543.25 1023.35 579.85 1023.62
  Q 588.19 1023.69 595.39 1022.74
  Q 613.52 1020.37 637.28 1016.21
  C 655.40 1013.03 670.66 1009.33 687.79 1002.34
  Q 717.82 990.10 733.00 982.20
  Q 747.26 974.78 758.57 965.69
  Q 762.03 962.91 772.09 954.70
  C 783.98 944.99 793.27 939.19 807.70 928.41
  Q 852.36 895.07 886.16 856.97
  Q 902.19 838.89 920.84 813.65
  C 942.21 784.74 959.60 753.31 975.09 722.00
  Q 978.58 714.93 985.05 700.26
  C 993.78 680.46 998.93 669.82 1004.35 653.90
  Q 1006.50 647.55 1010.20 633.69
  Q 1011.97 627.05 1016.33 613.57
  Q 1020.43 600.86 1024.00 587.99
  Z"
/>
</g>
<path fill="#eaece9" d="
  M 301.75 905.11
  Q 300.27 904.93 296.50 901.86
  Q 295.23 900.84 284.74 891.61
  C 275.21 883.24 268.42 878.49 254.82 867.98
  C 244.98 860.37 234.08 849.43 224.14 837.70
  Q 212.35 823.79 197.45 808.05
  C 185.98 795.93 176.12 784.16 167.63 770.71
  C 162.77 763.03 160.05 753.16 156.73 745.93
  Q 152.20 736.11 142.37 717.32
  Q 136.95 706.95 132.37 700.36
  C 123.47 687.54 117.25 678.95 113.67 666.80
  Q 110.20 654.99 108.82 651.48
  C 107.02 646.92 102.69 639.98 100.43 634.42
  Q 90.93 610.98 90.30 585.87
  Q 89.88 569.53 89.85 568.82
  Q 89.68 563.93 86.99 552.26
  Q 84.24 540.30 84.44 524.10
  C 84.64 508.59 84.09 485.47 86.17 465.59
  Q 88.59 442.47 94.18 413.32
  Q 97.65 395.22 105.93 376.82
  C 110.21 367.31 114.96 357.94 118.91 348.03
  Q 124.25 334.60 126.01 331.10
  Q 139.94 303.29 145.97 291.71
  Q 148.88 286.12 154.17 277.89
  Q 163.36 263.57 178.03 243.30
  C 193.76 221.56 212.92 202.25 230.61 183.66
  C 234.59 179.47 237.94 174.86 241.82 170.55
  Q 246.77 165.06 257.91 156.58
  Q 281.39 138.71 306.95 123.26
  Q 324.75 112.50 344.91 104.75
  Q 376.19 92.71 401.43 83.89
  Q 412.00 80.19 423.46 77.57
  Q 469.50 67.04 513.30 67.06
  Q 553.51 67.09 594.78 72.87
  C 617.73 76.09 640.02 81.46 659.68 90.91
  Q 670.84 96.28 690.22 107.24
  C 705.07 115.64 721.75 123.61 741.17 132.94
  Q 746.95 135.72 755.45 141.90
  C 779.10 159.09 799.37 178.20 822.45 202.94
  Q 841.61 223.48 854.55 243.77
  C 863.76 258.21 872.48 276.18 881.68 292.46
  Q 900.21 325.23 904.26 332.17
  Q 915.96 352.24 919.73 362.00
  C 927.49 382.10 931.37 402.94 934.59 422.81
  C 935.83 430.50 938.80 439.07 940.89 447.01
  Q 943.26 455.98 944.30 461.92
  C 947.33 479.24 947.76 494.54 947.99 514.22
  C 948.16 528.59 948.37 543.83 945.37 557.20
  Q 944.52 560.99 940.17 574.25
  C 938.19 580.26 936.71 588.94 935.84 597.03
  C 934.20 612.09 932.70 624.11 928.56 637.57
  Q 920.31 664.38 909.08 687.12
  Q 893.72 718.22 888.16 727.24
  C 871.81 753.77 853.42 778.68 837.90 801.17
  Q 826.29 817.99 810.48 831.73
  Q 788.07 851.22 770.84 866.71
  C 762.59 874.14 750.20 881.13 743.61 886.32
  Q 734.87 893.21 726.39 900.90
  Q 711.47 914.45 691.45 923.05
  C 668.43 932.93 644.79 940.29 621.28 947.36
  C 595.37 955.14 577.06 960.59 553.65 962.32
  C 521.51 964.70 491.18 963.14 456.46 961.06
  Q 427.30 959.31 400.42 949.90
  Q 375.32 941.10 350.11 929.95
  C 343.81 927.17 337.21 923.69 332.60 920.19
  C 323.21 913.07 313.28 906.51 301.75 905.11
  Z"
/>
<g stroke-width="2.00" fill="none" stroke-linecap="butt">
<path stroke="#859ca7" vector-effect="non-scaling-stroke" d="
  M 407.13 209.26
  L 416.74 278.28
  A 0.98 0.96 9.4 0 0 417.28 279.02
  L 466.78 303.58"
/>
<path stroke="#0e4c62" vector-effect="non-scaling-stroke" d="
  M 466.78 303.58
  Q 457.80 303.53 457.91 312.77
  Q 458.06 325.55 461.51 337.15
  C 464.19 346.15 469.90 351.23 477.47 356.35"
/>
<path stroke="#859ca7" vector-effect="non-scaling-stroke" d="
  M 477.47 356.35
  L 377.25 306.70
  A 1.57 1.56 -81.3 0 1 376.39 305.52
  L 363.44 217.24"
/>
<path stroke="#2b8794" vector-effect="non-scaling-stroke" d="
  M 517.99 328.49
  L 517.79 375.70"
/>
<path stroke="#0d6075" vector-effect="non-scaling-stroke" d="
  M 517.79 375.70
  Q 516.92 376.01 517.14 376.17"
/>
<path stroke="#a1d7d9" vector-effect="non-scaling-stroke" d="
  M 769.00 383.81
  Q 704.11 351.62 638.57 320.72"
/>
<path stroke="#92c5ca" vector-effect="non-scaling-stroke" d="
  M 638.57 320.72
  L 547.53 277.14"
/>
<path stroke="#8abac1" vector-effect="non-scaling-stroke" d="
  M 547.53 277.14
  L 501.27 254.80"
/>
<path stroke="#83b0ba" vector-effect="non-scaling-stroke" d="
  M 501.27 254.80
  Q 464.80 236.70 428.09 219.29
  A 0.21 0.04 26.2 0 0 427.91 219.24
  Q 427.85 219.29 427.81 219.29
  A 0.35 0.35 0.0 0 0 427.49 219.69
  L 434.37 270.31
  A 1.27 1.27 0.0 0 0 435.07 271.28
  L 501.79 304.38"
/>
<path stroke="#8abac1" vector-effect="non-scaling-stroke" d="
  M 501.79 304.38
  L 549.55 328.11"
/>
<path stroke="#92c5ca" vector-effect="non-scaling-stroke" d="
  M 549.55 328.11
  L 639.23 372.57"
/>
<path stroke="#a1d7d9" vector-effect="non-scaling-stroke" d="
  M 639.23 372.57
  L 718.39 411.92
  A 0.67 0.66 44.6 0 1 718.40 413.11
  L 691.65 426.79"
/>
<path stroke="#92c5ca" vector-effect="non-scaling-stroke" d="
  M 691.65 426.79
  L 661.99 442.16"
/>
<path stroke="#8abac1" vector-effect="non-scaling-stroke" d="
  M 661.99 442.16
  L 645.43 450.75"
/>
<path stroke="#83b0ba" vector-effect="non-scaling-stroke" d="
  M 645.43 450.75
  L 533.92 507.57"
/>
<path stroke="#859ca7" vector-effect="non-scaling-stroke" d="
  M 533.92 507.57
  L 511.22 519.57"
/>
<path stroke="#83b0ba" vector-effect="non-scaling-stroke" d="
  M 511.22 519.57
  L 478.65 536.11
  A 2.15 2.15 0.0 0 0 477.52 537.54
  L 450.49 651.47
  A 0.31 0.30 -83.8 0 0 450.78 651.84
  L 502.84 651.84
  A 0.52 0.52 0.0 0 0 503.35 651.43
  L 524.40 565.04
  A 1.30 1.29 83.2 0 1 525.06 564.20
  L 642.03 503.64"
/>
<path stroke="#8abac1" vector-effect="non-scaling-stroke" d="
  M 642.03 503.64
  L 663.80 492.40"
/>
<path stroke="#92c5ca" vector-effect="non-scaling-stroke" d="
  M 663.80 492.40
  L 691.55 478.03"
/>
<path stroke="#a1d7d9" vector-effect="non-scaling-stroke" d="
  M 691.55 478.03
  L 786.84 428.65"
/>
<path stroke="#83b0ba" vector-effect="non-scaling-stroke" d="
  M 700.47 719.80
  C 679.28 701.53 646.24 708.26 636.14 734.88
  C 630.38 750.08 631.15 767.29 635.74 782.70"
/>
<path stroke="#83b0ba" vector-effect="non-scaling-stroke" d="
  M 582.64 806.99
  Q 591.04 805.67 596.20 803.22
  C 614.90 794.33 618.80 768.44 600.33 756.54
  Q 592.59 751.56 583.69 750.91
  A 0.61 0.60 23.1 0 1 583.28 749.90
  L 609.22 721.24
  A 1.67 1.67 0.0 0 0 609.66 720.11
  L 609.66 711.32
  A 0.52 0.52 0.0 0 0 609.14 710.80
  L 550.40 710.80
  A 0.61 0.61 0.0 0 0 549.79 711.44
  L 550.17 720.25
  A 0.47 0.47 0.0 0 0 550.64 720.70
  L 595.57 720.70
  A 0.21 0.21 0.0 0 1 595.73 721.05
  L 568.38 751.26
  A 1.29 1.25 66.0 0 0 568.05 752.17
  L 568.34 758.89
  A 0.58 0.58 0.0 0 0 568.92 759.45
  C 579.75 759.33 593.62 760.13 599.78 770.79
  C 603.22 776.75 602.19 785.11 597.14 790.06
  C 590.47 796.62 580.05 797.73 571.08 796.11
  Q 559.36 793.99 552.34 783.74
  A 0.58 0.57 54.5 0 0 551.52 783.60
  L 544.26 788.94
  A 0.70 0.70 0.0 0 0 544.08 789.88
  C 551.40 801.63 566.07 807.35 579.48 807.07"
/>
<path stroke="#859ca7" vector-effect="non-scaling-stroke" d="
  M 389.97 785.70
  L 381.39 774.15
  A 0.42 0.42 0.0 0 1 381.59 773.49
  Q 397.99 767.76 400.84 750.56
  C 402.82 738.62 398.87 725.57 388.62 718.87
  Q 378.84 712.48 365.79 712.17
  Q 343.00 711.63 320.32 711.86
  A 0.51 0.51 0.0 0 0 319.81 712.37
  L 319.70 735.99"
/>
<path stroke="#81a7b0" vector-effect="non-scaling-stroke" d="
  M 477.47 356.35
  L 517.14 376.17"
/>
<path stroke="#83b0ba" vector-effect="non-scaling-stroke" d="
  M 517.14 376.17
  Q 516.49 377.38 513.96 378.13"
/>
<path stroke="#81a7b0" vector-effect="non-scaling-stroke" d="
  M 513.96 378.13
  Q 511.75 379.05 509.61 380.11
  Q 461.93 403.79 414.77 428.42"
/>
<path stroke="#859ca7" vector-effect="non-scaling-stroke" d="
  M 414.77 428.42
  L 345.39 464.02
  A 1.24 1.22 -7.3 0 0 344.76 464.82
  L 299.35 651.21
  A 0.55 0.55 0.0 0 0 299.88 651.89
  L 348.60 651.89
  A 0.53 0.53 0.0 0 0 349.11 651.49
  L 388.49 489.87
  A 1.14 1.13 -6.9 0 1 389.09 489.11
  L 421.10 472.81"
/>
<path stroke="#81a7b0" vector-effect="non-scaling-stroke" d="
  M 421.10 472.81
  L 511.26 427.21"
/>
<path stroke="#83b0ba" vector-effect="non-scaling-stroke" d="
  M 511.26 427.21
  L 517.70 424.28"
/>
<path stroke="#a1d7d9" vector-effect="non-scaling-stroke" d="
  M 517.70 424.28
  L 564.99 400.31
  A 1.76 1.76 0.0 0 0 565.96 398.66
  L 563.93 351.23
  A 1.04 1.04 0.0 0 0 563.33 350.32
  L 517.99 328.49"
/>
<path stroke="#81a7b0" vector-effect="non-scaling-stroke" d="
  M 517.99 328.49
  L 466.78 303.58"
/>
<path stroke="#0d6075" vector-effect="non-scaling-stroke" d="
  M 511.26 427.21
  Q 506.24 428.25 501.62 430.57
  Q 481.85 440.47 481.33 440.70
  A 1.11 1.11 0.0 0 1 480.41 440.70
  C 476.79 438.99 476.79 435.72 476.65 431.97
  Q 476.37 424.17 476.48 406.34
  Q 476.53 398.22 483.33 395.00
  Q 498.33 387.87 510.35 381.21
  Q 511.89 380.35 513.96 378.13"
/>
<path stroke="#2d909d" vector-effect="non-scaling-stroke" d="
  M 517.70 424.28
  L 517.79 375.70"
/>
<path stroke="#258796" vector-effect="non-scaling-stroke" d="
  M 663.80 492.40
  L 649.48 498.42
  A 0.37 0.37 0.0 0 1 648.97 498.14
  Q 645.25 474.66 649.18 451.12
  A 1.11 1.08 79.0 0 1 649.67 450.37
  Q 654.04 447.50 658.93 444.92
  Q 660.28 444.21 661.99 442.16"
/>
<path stroke="#3ca5ad" vector-effect="non-scaling-stroke" d="
  M 638.57 320.72
  Q 632.67 346.83 639.23 372.57"
/>
<path stroke="#258796" vector-effect="non-scaling-stroke" d="
  M 547.53 277.14
  C 542.74 294.39 545.44 311.01 549.55 328.11"
/>
<path stroke="#3ca5ad" vector-effect="non-scaling-stroke" d="
  M 691.55 478.03
  Q 690.04 452.67 691.65 426.79"
/>
<path stroke="#167386" vector-effect="non-scaling-stroke" d="
  M 501.27 254.80
  Q 499.84 279.61 501.79 304.38"
/>
<path stroke="#167386" vector-effect="non-scaling-stroke" d="
  M 642.03 503.64
  L 628.42 508.55
  A 0.38 0.37 -9.2 0 1 627.92 508.19
  Q 628.27 492.49 628.02 486.96
  Q 627.56 476.81 627.61 466.20
  Q 627.62 464.29 627.29 461.71
  A 0.73 0.72 71.8 0 1 627.66 460.97
  Q 633.78 457.62 641.97 453.55
  Q 643.28 452.90 645.43 450.75"
/>
<path stroke="#0e4c62" vector-effect="non-scaling-stroke" d="
  M 421.10 472.81
  Q 416.09 469.49 415.09 464.20
  Q 414.06 458.72 413.97 452.12
  Q 413.80 440.32 414.77 428.42"
/>
<path stroke="#11556b" vector-effect="non-scaling-stroke" d="
  M 511.22 519.57
  Q 523.44 515.67 534.04 508.56
  Q 534.33 508.36 534.39 508.01
  Q 534.47 507.58 533.92 507.57"
/>
</g>
<g fill="#124158">
<path d="
  M 407.13 209.26
  L 416.74 278.28
  A 0.98 0.96 9.4 0 0 417.28 279.02
  L 466.78 303.58
  Q 457.80 303.53 457.91 312.77
  Q 458.06 325.55 461.51 337.15
  C 464.19 346.15 469.90 351.23 477.47 356.35
  L 377.25 306.70
  A 1.57 1.56 -81.3 0 1 376.39 305.52
  L 363.44 217.24
  L 358.96 185.76
  A 0.24 0.24 0.0 0 1 359.30 185.51
  L 406.42 207.82
  A 0.86 0.86 0.0 0 1 406.83 208.20
  Q 407.11 208.70 407.13 209.26
  Z"
/>
<path d="
  M 414.77 428.42
  Q 413.80 440.32 413.97 452.12
  Q 414.06 458.72 415.09 464.20
  Q 416.09 469.49 421.10 472.81
  L 389.09 489.11
  A 1.14 1.13 -6.9 0 0 388.49 489.87
  L 349.11 651.49
  A 0.53 0.53 0.0 0 1 348.60 651.89
  L 299.88 651.89
  A 0.55 0.55 0.0 0 1 299.35 651.21
  L 344.76 464.82
  A 1.24 1.22 -7.3 0 1 345.39 464.02
  L 414.77 428.42
  Z"
/>
<path d="
  M 533.92 507.57
  Q 534.47 507.58 534.39 508.01
  Q 534.33 508.36 534.04 508.56
  Q 523.44 515.67 511.22 519.57
  L 533.92 507.57
  Z"
/>
<path d="
  M 248.08 789.34
  L 297.40 789.34
  A 0.44 0.44 0.0 0 1 297.84 789.78
  L 297.84 805.48
  A 0.44 0.44 0.0 0 1 297.40 805.92
  L 227.91 805.92
  A 0.44 0.44 0.0 0 1 227.47 805.48
  L 227.47 712.34
  A 0.44 0.44 0.0 0 1 227.91 711.90
  L 297.26 711.90
  A 0.44 0.44 0.0 0 1 297.70 712.34
  L 297.70 728.65
  A 0.44 0.44 0.0 0 1 297.26 729.09
  L 248.05 729.09
  A 0.44 0.44 0.0 0 0 247.61 729.53
  L 247.61 749.35
  A 0.44 0.44 0.0 0 0 248.05 749.79
  L 291.78 749.79
  A 0.44 0.44 0.0 0 1 292.22 750.23
  L 292.22 766.03
  A 0.44 0.44 0.0 0 1 291.78 766.47
  L 248.08 766.47
  A 0.44 0.44 0.0 0 0 247.64 766.91
  L 247.64 788.90
  A 0.44 0.44 0.0 0 0 248.08 789.34
  Z"
/>
<path d="
  M 389.97 785.70
  L 403.86 804.92
  A 0.43 0.43 0.0 0 1 403.51 805.61
  L 382.34 805.61
  A 1.44 1.41 71.7 0 1 381.19 805.02
  L 361.23 777.87
  A 0.77 0.77 0.0 0 0 360.62 777.57
  L 340.60 777.57
  A 0.75 0.75 0.0 0 0 339.85 778.32
  L 339.85 805.22
  A 0.49 0.49 0.0 0 1 339.36 805.71
  L 320.28 805.71
  A 0.53 0.53 0.0 0 1 319.75 805.18
  L 319.70 735.99
  L 319.81 712.37
  A 0.51 0.51 0.0 0 1 320.32 711.86
  Q 343.00 711.63 365.79 712.17
  Q 378.84 712.48 388.62 718.87
  C 398.87 725.57 402.82 738.62 400.84 750.56
  Q 397.99 767.76 381.59 773.49
  A 0.42 0.42 0.0 0 0 381.39 774.15
  L 389.97 785.70
  Z"
/>
</g>
<g fill="#4bb7bc">
<path d="
  M 638.57 320.72
  Q 704.11 351.62 769.00 383.81
  L 821.69 409.81
  A 0.33 0.32 44.5 0 1 821.70 410.39
  L 786.84 428.65
  L 691.55 478.03
  Q 690.04 452.67 691.65 426.79
  L 718.40 413.11
  A 0.67 0.66 44.6 0 0 718.39 411.92
  L 639.23 372.57
  Q 632.67 346.83 638.57 320.72
  Z"
/>
<path d="
  M 517.70 424.28
  L 517.79 375.70
  L 517.99 328.49
  L 563.33 350.32
  A 1.04 1.04 0.0 0 1 563.93 351.23
  L 565.96 398.66
  A 1.76 1.76 0.0 0 1 564.99 400.31
  L 517.70 424.28
  Z"
/>
</g>
<g fill="#0f697e">
<path d="
  M 501.27 254.80
  Q 499.84 279.61 501.79 304.38
  L 435.07 271.28
  A 1.27 1.27 0.0 0 1 434.37 270.31
  L 427.49 219.69
  A 0.35 0.35 0.0 0 1 427.81 219.29
  Q 427.85 219.29 427.91 219.24
  A 0.21 0.04 26.2 0 1 428.09 219.29
  Q 464.80 236.70 501.27 254.80
  Z"
/>
<path d="
  M 517.79 375.70
  L 517.70 424.28
  L 511.26 427.21
  Q 506.24 428.25 501.62 430.57
  Q 481.85 440.47 481.33 440.70
  A 1.11 1.11 0.0 0 1 480.41 440.70
  C 476.79 438.99 476.79 435.72 476.65 431.97
  Q 476.37 424.17 476.48 406.34
  Q 476.53 398.22 483.33 395.00
  Q 498.33 387.87 510.35 381.21
  Q 511.89 380.35 513.96 378.13
  Q 516.49 377.38 517.14 376.17
  Q 516.92 376.01 517.79 375.70
  Z"
/>
<path d="
  M 645.43 450.75
  Q 643.28 452.90 641.97 453.55
  Q 633.78 457.62 627.66 460.97
  A 0.73 0.72 71.8 0 0 627.29 461.71
  Q 627.62 464.29 627.61 466.20
  Q 627.56 476.81 628.02 486.96
  Q 628.27 492.49 627.92 508.19
  A 0.38 0.37 -9.2 0 0 628.42 508.55
  L 642.03 503.64
  L 525.06 564.20
  A 1.30 1.29 83.2 0 0 524.40 565.04
  L 503.35 651.43
  A 0.52 0.52 0.0 0 1 502.84 651.84
  L 450.78 651.84
  A 0.31 0.30 -83.8 0 1 450.49 651.47
  L 477.52 537.54
  A 2.15 2.15 0.0 0 1 478.65 536.11
  L 511.22 519.57
  Q 523.44 515.67 534.04 508.56
  Q 534.33 508.36 534.39 508.01
  Q 534.47 507.58 533.92 507.57
  L 645.43 450.75
  Z"
/>
<path d="
  M 700.47 719.80
  Q 701.31 720.29 701.61 720.87
  A 0.77 0.77 0.0 0 1 701.51 721.74
  L 695.77 728.08
  A 0.80 0.79 41.6 0 1 694.66 728.14
  C 683.22 718.13 666.01 715.83 654.06 726.30
  C 644.83 734.39 642.61 746.87 641.89 760.20
  A 0.15 0.15 0.0 0 0 642.16 760.30
  Q 655.43 744.43 676.76 746.27
  C 693.34 747.70 707.69 760.83 706.27 778.11
  C 704.13 804.17 673.02 813.84 652.58 802.72
  Q 640.72 796.27 635.74 782.70
  C 631.15 767.29 630.38 750.08 636.14 734.88
  C 646.24 708.26 679.28 701.53 700.47 719.80
  Z"
/>
<path d="
  M 582.64 806.99
  L 579.48 807.07
  C 566.07 807.35 551.40 801.63 544.08 789.88
  A 0.70 0.70 0.0 0 1 544.26 788.94
  L 551.52 783.60
  A 0.58 0.57 54.5 0 1 552.34 783.74
  Q 559.36 793.99 571.08 796.11
  C 580.05 797.73 590.47 796.62 597.14 790.06
  C 602.19 785.11 603.22 776.75 599.78 770.79
  C 593.62 760.13 579.75 759.33 568.92 759.45
  A 0.58 0.58 0.0 0 1 568.34 758.89
  L 568.05 752.17
  A 1.29 1.25 66.0 0 1 568.38 751.26
  L 595.73 721.05
  A 0.21 0.21 0.0 0 0 595.57 720.70
  L 550.64 720.70
  A 0.47 0.47 0.0 0 1 550.17 720.25
  L 549.79 711.44
  A 0.61 0.61 0.0 0 1 550.40 710.80
  L 609.14 710.80
  A 0.52 0.52 0.0 0 1 609.66 711.32
  L 609.66 720.11
  A 1.67 1.67 0.0 0 1 609.22 721.24
  L 583.28 749.90
  A 0.61 0.60 23.1 0 0 583.69 750.91
  Q 592.59 751.56 600.33 756.54
  C 618.80 768.44 614.90 794.33 596.20 803.22
  Q 591.04 805.67 582.64 806.99
  Z"
/>
<path d="
  M 728.22 762.72
  A 0.45 0.44 -8.7 0 1 727.64 762.30
  L 727.64 711.02
  A 0.19 0.19 0.0 0 1 727.83 710.83
  L 784.02 710.83
  A 0.53 0.52 -90.0 0 1 784.54 711.36
  L 784.54 720.34
  A 0.47 0.47 0.0 0 1 784.07 720.81
  L 738.50 720.81
  A 0.74 0.74 0.0 0 0 737.76 721.55
  L 737.76 750.05
  A 0.38 0.38 0.0 0 0 738.25 750.41
  Q 754.34 745.38 769.25 749.77
  Q 776.78 751.98 783.11 759.04
  Q 788.95 765.54 789.23 775.48
  C 789.74 793.72 776.79 805.04 759.49 806.93
  C 744.81 808.54 730.35 803.89 720.79 792.42
  A 0.65 0.64 48.1 0 1 720.83 791.55
  L 727.17 785.21
  A 0.53 0.53 0.0 0 1 727.97 785.26
  Q 736.74 796.51 752.71 797.29
  C 767.95 798.03 781.69 789.51 778.35 772.12
  C 776.84 764.26 768.40 759.42 761.01 758.25
  C 750.02 756.51 739.32 759.20 728.22 762.72
  Z"
/>
</g>
<g fill="#2d929e">
<path d="
  M 547.53 277.14
  L 638.57 320.72
  Q 632.67 346.83 639.23 372.57
  L 549.55 328.11
  C 545.44 311.01 542.74 294.39 547.53 277.14
  Z"
/>
<path d="
  M 691.65 426.79
  Q 690.04 452.67 691.55 478.03
  L 663.80 492.40
  L 649.48 498.42
  A 0.37 0.37 0.0 0 1 648.97 498.14
  Q 645.25 474.66 649.18 451.12
  A 1.11 1.08 79.0 0 1 649.67 450.37
  Q 654.04 447.50 658.93 444.92
  Q 660.28 444.21 661.99 442.16
  L 691.65 426.79
  Z"
/>
</g>
<path fill="#f7f7f5" d="
  M 769.00 383.81
  Q 704.11 351.62 638.57 320.72
  L 547.53 277.14
  L 501.27 254.80
  Q 464.80 236.70 428.09 219.29
  A 0.21 0.04 26.2 0 0 427.91 219.24
  Q 427.85 219.29 427.81 219.29
  A 0.35 0.35 0.0 0 0 427.49 219.69
  L 434.37 270.31
  A 1.27 1.27 0.0 0 0 435.07 271.28
  L 501.79 304.38
  L 549.55 328.11
  L 639.23 372.57
  L 718.39 411.92
  A 0.67 0.66 44.6 0 1 718.40 413.11
  L 691.65 426.79
  L 661.99 442.16
  L 645.43 450.75
  L 533.92 507.57
  L 511.22 519.57
  L 478.65 536.11
  A 2.15 2.15 0.0 0 0 477.52 537.54
  L 450.49 651.47
  A 0.31 0.30 -83.8 0 0 450.78 651.84
  L 502.84 651.84
  A 0.52 0.52 0.0 0 0 503.35 651.43
  L 524.40 565.04
  A 1.30 1.29 83.2 0 1 525.06 564.20
  L 642.03 503.64
  L 663.80 492.40
  L 691.55 478.03
  L 786.84 428.65
  C 793.47 440.63 798.27 451.02 800.74 463.73
  Q 805.16 486.52 804.38 508.21
  C 804.22 512.85 803.60 517.83 802.18 523.03
  Q 799.68 532.25 799.13 535.92
  C 797.32 547.91 796.23 559.96 793.60 570.68
  Q 790.24 584.39 784.05 597.36
  C 779.70 606.50 777.68 611.86 773.05 622.57
  Q 770.20 629.17 767.48 633.54
  Q 762.34 641.81 759.43 648.16
  C 756.15 655.33 754.36 660.59 748.72 666.01
  Q 736.81 677.44 723.45 696.29
  Q 714.62 708.75 700.47 719.80
  C 679.28 701.53 646.24 708.26 636.14 734.88
  C 630.38 750.08 631.15 767.29 635.74 782.70
  Q 633.44 776.45 631.21 770.18
  Q 630.48 768.14 628.61 765.44
  C 625.81 761.40 620.87 761.32 617.65 764.81
  C 614.27 768.48 614.31 774.83 614.62 779.78
  A 3.18 3.11 52.9 0 1 614.48 780.89
  C 613.18 784.96 612.57 787.79 610.75 790.71
  Q 607.41 796.06 602.68 801.02
  A 1.33 1.25 -80.5 0 1 602.34 801.28
  L 592.85 806.49
  A 1.58 1.43 -62.0 0 1 592.52 806.61
  Q 587.84 807.61 582.64 806.99
  Q 591.04 805.67 596.20 803.22
  C 614.90 794.33 618.80 768.44 600.33 756.54
  Q 592.59 751.56 583.69 750.91
  A 0.61 0.60 23.1 0 1 583.28 749.90
  L 609.22 721.24
  A 1.67 1.67 0.0 0 0 609.66 720.11
  L 609.66 711.32
  A 0.52 0.52 0.0 0 0 609.14 710.80
  L 550.40 710.80
  A 0.61 0.61 0.0 0 0 549.79 711.44
  L 550.17 720.25
  A 0.47 0.47 0.0 0 0 550.64 720.70
  L 595.57 720.70
  A 0.21 0.21 0.0 0 1 595.73 721.05
  L 568.38 751.26
  A 1.29 1.25 66.0 0 0 568.05 752.17
  L 568.34 758.89
  A 0.58 0.58 0.0 0 0 568.92 759.45
  C 579.75 759.33 593.62 760.13 599.78 770.79
  C 603.22 776.75 602.19 785.11 597.14 790.06
  C 590.47 796.62 580.05 797.73 571.08 796.11
  Q 559.36 793.99 552.34 783.74
  A 0.58 0.57 54.5 0 0 551.52 783.60
  L 544.26 788.94
  A 0.70 0.70 0.0 0 0 544.08 789.88
  C 551.40 801.63 566.07 807.35 579.48 807.07
  Q 560.54 807.58 552.97 808.77
  C 532.63 811.97 516.57 813.78 496.48 813.25
  Q 476.55 812.73 453.23 812.55
  Q 443.82 812.47 428.89 808.36
  Q 426.97 807.83 425.53 807.96
  Q 423.41 808.15 422.20 808.05
  A 2.74 2.74 0.0 0 1 419.68 805.32
  L 419.68 803.59
  A 1.96 1.96 0.0 0 0 419.27 802.39
  Q 412.11 793.10 404.15 786.11
  C 401.20 783.52 396.41 779.71 392.55 779.48
  A 2.18 2.17 10.2 0 0 390.34 781.01
  Q 389.72 782.97 389.97 785.70
  L 381.39 774.15
  A 0.42 0.42 0.0 0 1 381.59 773.49
  Q 397.99 767.76 400.84 750.56
  C 402.82 738.62 398.87 725.57 388.62 718.87
  Q 378.84 712.48 365.79 712.17
  Q 343.00 711.63 320.32 711.86
  A 0.51 0.51 0.0 0 0 319.81 712.37
  L 319.70 735.99
  L 318.28 750.93
  A 0.94 0.93 19.3 0 1 316.84 751.62
  Q 316.21 751.21 315.61 750.01
  Q 313.63 746.07 311.54 739.77
  C 308.13 729.52 305.25 720.66 299.88 710.01
  Q 295.05 700.45 288.47 686.49
  Q 286.63 682.58 277.63 666.87
  C 273.80 660.18 269.02 650.30 265.20 641.27
  Q 257.37 622.72 249.25 607.41
  Q 246.73 602.65 245.67 599.12
  C 244.31 594.63 243.56 589.17 241.85 583.70
  Q 240.30 578.75 235.26 566.39
  C 233.49 562.05 232.03 555.63 231.09 549.83
  C 228.72 535.08 227.44 528.50 224.94 517.90
  Q 222.88 509.17 223.92 497.22
  Q 224.97 485.07 227.80 466.34
  C 228.97 458.56 230.76 453.62 235.10 446.07
  Q 238.98 439.33 240.37 434.98
  Q 245.58 418.56 249.95 405.64
  C 252.81 397.16 254.08 390.38 256.43 381.94
  Q 258.61 374.09 263.47 365.04
  C 272.73 347.80 284.70 332.14 297.72 316.85
  C 303.93 309.56 308.43 302.79 313.63 294.95
  C 315.07 292.77 317.45 289.83 319.55 287.74
  Q 324.63 282.68 335.89 271.09
  C 342.21 264.60 348.67 259.47 354.49 252.61
  C 363.31 242.21 363.72 230.10 363.44 217.24
  L 376.39 305.52
  A 1.57 1.56 -81.3 0 0 377.25 306.70
  L 477.47 356.35
  L 517.14 376.17
  Q 516.49 377.38 513.96 378.13
  Q 511.75 379.05 509.61 380.11
  Q 461.93 403.79 414.77 428.42
  L 345.39 464.02
  A 1.24 1.22 -7.3 0 0 344.76 464.82
  L 299.35 651.21
  A 0.55 0.55 0.0 0 0 299.88 651.89
  L 348.60 651.89
  A 0.53 0.53 0.0 0 0 349.11 651.49
  L 388.49 489.87
  A 1.14 1.13 -6.9 0 1 389.09 489.11
  L 421.10 472.81
  L 511.26 427.21
  L 517.70 424.28
  L 564.99 400.31
  A 1.76 1.76 0.0 0 0 565.96 398.66
  L 563.93 351.23
  A 1.04 1.04 0.0 0 0 563.33 350.32
  L 517.99 328.49
  L 466.78 303.58
  L 417.28 279.02
  A 0.98 0.96 9.4 0 1 416.74 278.28
  L 407.13 209.26
  Q 416.34 211.30 425.43 209.35
  Q 434.63 207.37 445.84 204.77
  C 454.30 202.80 464.93 201.19 472.34 203.30
  C 477.21 204.69 481.88 207.09 488.25 205.38
  Q 501.54 201.83 504.23 201.12
  C 514.17 198.50 525.78 198.04 535.26 198.60
  C 555.53 199.80 576.05 202.76 595.84 209.07
  C 624.03 218.07 652.03 229.66 676.13 246.75
  Q 686.09 253.82 696.20 261.91
  C 705.89 269.66 712.12 278.30 718.67 288.04
  C 723.03 294.53 730.36 302.83 734.39 309.23
  Q 744.97 326.06 756.86 343.67
  Q 761.29 350.23 765.85 358.95
  Q 772.12 370.94 769.00 383.81
  Z"
/>
<g fill="#0a566b">
<path d="
  M 466.78 303.58
  L 517.99 328.49
  L 517.79 375.70
  Q 516.92 376.01 517.14 376.17
  L 477.47 356.35
  C 469.90 351.23 464.19 346.15 461.51 337.15
  Q 458.06 325.55 457.91 312.77
  Q 457.80 303.53 466.78 303.58
  Z"
/>
<path d="
  M 513.96 378.13
  Q 511.89 380.35 510.35 381.21
  Q 498.33 387.87 483.33 395.00
  Q 476.53 398.22 476.48 406.34
  Q 476.37 424.17 476.65 431.97
  C 476.79 435.72 476.79 438.99 480.41 440.70
  A 1.11 1.11 0.0 0 0 481.33 440.70
  Q 481.85 440.47 501.62 430.57
  Q 506.24 428.25 511.26 427.21
  L 421.10 472.81
  Q 416.09 469.49 415.09 464.20
  Q 414.06 458.72 413.97 452.12
  Q 413.80 440.32 414.77 428.42
  Q 461.93 403.79 509.61 380.11
  Q 511.75 379.05 513.96 378.13
  Z"
/>
</g>
<g fill="#1c7c8d">
<path d="
  M 547.53 277.14
  C 542.74 294.39 545.44 311.01 549.55 328.11
  L 501.79 304.38
  Q 499.84 279.61 501.27 254.80
  L 547.53 277.14
  Z"
/>
<path d="
  M 661.99 442.16
  Q 660.28 444.21 658.93 444.92
  Q 654.04 447.50 649.67 450.37
  A 1.11 1.08 79.0 0 0 649.18 451.12
  Q 645.25 474.66 648.97 498.14
  A 0.37 0.37 0.0 0 0 649.48 498.42
  L 663.80 492.40
  L 642.03 503.64
  L 628.42 508.55
  A 0.38 0.37 -9.2 0 1 627.92 508.19
  Q 628.27 492.49 628.02 486.96
  Q 627.56 476.81 627.61 466.20
  Q 627.62 464.29 627.29 461.71
  A 0.73 0.72 71.8 0 1 627.66 460.97
  Q 633.78 457.62 641.97 453.55
  Q 643.28 452.90 645.43 450.75
  L 661.99 442.16
  Z"
/>
</g>
<g stroke-width="2.00" fill="none" stroke-linecap="butt">
<path stroke="#167386" vector-effect="non-scaling-stroke" d="
  M 594.72 371.03
  Q 594.33 382.16 594.63 389.49
  Q 595.68 414.90 598.96 448.27
  A 0.36 0.36 0.0 0 0 599.47 448.56
  Q 609.93 443.76 622.23 437.78
  Q 624.12 436.86 627.57 435.81"
/>
<path stroke="#0d6075" vector-effect="non-scaling-stroke" d="
  M 586.82 456.77
  C 580.11 458.02 575.93 460.80 567.91 464.91
  A 0.43 0.42 67.1 0 1 567.31 464.66
  C 564.98 457.76 565.90 453.84 567.35 445.44
  C 569.47 433.14 571.84 423.47 577.52 412.51"
/>
<path stroke="#0e4c62" vector-effect="non-scaling-stroke" d="
  M 491.24 505.61
  L 481.69 507.27
  A 0.68 0.68 0.0 0 1 480.96 506.91
  Q 479.65 504.40 481.11 501.65
  C 485.13 494.12 488.17 488.67 489.57 481.84
  Q 491.52 472.32 491.89 458.20
  A 0.96 0.94 -17.3 0 1 492.30 457.44
  Q 493.39 456.67 495.37 455.65
  Q 507.39 449.47 511.67 447.55
  C 518.54 444.46 524.60 440.41 530.40 437.65
  Q 543.93 431.22 557.03 423.52"
/>
<path stroke="#258796" vector-effect="non-scaling-stroke" d="
  M 623.60 384.89
  C 621.92 395.50 620.53 406.50 621.54 417.21
  Q 622.44 426.70 628.65 433.66
  A 1.02 1.00 66.6 0 0 629.46 433.99
  L 631.63 433.82"
/>
</g>
<g fill="#124158">
<path d="
  M 557.03 423.52
  Q 543.93 431.22 530.40 437.65
  C 524.60 440.41 518.54 444.46 511.67 447.55
  Q 507.39 449.47 495.37 455.65
  Q 493.39 456.67 492.30 457.44
  A 0.96 0.94 -17.3 0 0 491.89 458.20
  Q 491.52 472.32 489.57 481.84
  C 488.17 488.67 485.13 494.12 481.11 501.65
  Q 479.65 504.40 480.96 506.91
  A 0.68 0.68 0.0 0 0 481.69 507.27
  L 491.24 505.61
  L 456.83 523.62
  A 2.81 2.81 0.0 0 0 455.42 525.43
  L 424.75 651.32
  A 0.74 0.74 0.0 0 1 424.03 651.88
  L 373.54 651.88
  A 0.41 0.40 -83.2 0 1 373.15 651.38
  L 409.24 499.22
  A 2.55 2.54 -8.7 0 1 410.41 497.63
  Q 410.90 497.33 414.47 495.49
  Q 417.23 494.07 545.97 428.49
  Q 553.29 424.77 557.03 423.52
  Z"
/>
<path d="
  M 421.16 805.08
  L 421.16 712.37
  A 0.54 0.53 -90.0 0 1 421.69 711.83
  Q 445.99 711.79 463.25 712.01
  C 480.18 712.22 495.98 719.55 500.15 736.54
  C 503.85 751.58 498.84 766.11 484.70 773.38
  Q 475.57 778.08 465.00 778.46
  Q 454.26 778.84 442.02 778.60
  A 0.47 0.47 0.0 0 0 441.54 779.07
  L 441.54 805.24
  A 0.48 0.48 0.0 0 1 441.06 805.72
  L 421.80 805.72
  A 0.64 0.64 0.0 0 1 421.16 805.08
  Z"
/>
</g>
<path fill="#0f697e" d="
  M 594.72 371.03
  Q 594.33 382.16 594.63 389.49
  Q 595.68 414.90 598.96 448.27
  A 0.36 0.36 0.0 0 0 599.47 448.56
  Q 609.93 443.76 622.23 437.78
  Q 624.12 436.86 627.57 435.81
  L 586.82 456.77
  C 580.11 458.02 575.93 460.80 567.91 464.91
  A 0.43 0.42 67.1 0 1 567.31 464.66
  C 564.98 457.76 565.90 453.84 567.35 445.44
  C 569.47 433.14 571.84 423.47 577.52 412.51
  L 586.74 407.55
  A 0.51 0.50 76.6 0 0 587.01 407.10
  L 587.01 367.55
  A 0.15 0.15 0.0 0 1 587.23 367.42
  L 594.72 371.03
  Z"
/>
<path fill="#eaece9" d="
  M 680.87 757.18
  C 688.33 759.59 694.84 765.82 695.67 773.93
  C 697.34 790.29 681.59 798.67 667.42 797.01
  Q 651.07 795.10 645.78 778.82
  Q 643.90 773.05 647.55 767.72
  C 654.81 757.13 668.66 753.24 680.87 757.18
  Z"
/>
<path fill="#2d929e" d="
  M 631.63 433.82
  L 629.46 433.99
  A 1.02 1.00 66.6 0 1 628.65 433.66
  Q 622.44 426.70 621.54 417.21
  C 620.53 406.50 621.92 395.50 623.60 384.89
  L 676.50 410.22
  A 0.43 0.43 0.0 0 1 676.51 410.99
  L 631.63 433.82
  Z"
/>
<path fill="#f7f7f5" d="
  M 339.85 729.93
  A 0.56 0.56 0.0 0 1 340.41 729.37
  L 364.05 729.50
  A 17.80 13.97 0.3 0 1 381.78 743.56
  L 381.76 746.52
  A 17.80 13.97 0.3 0 1 363.89 760.40
  L 340.25 760.27
  A 0.56 0.56 0.0 0 1 339.69 759.71
  L 339.85 729.93
  Z"
/>
<path fill="#0a566b" d="
  M 577.52 412.51
  C 571.84 423.47 569.47 433.14 567.35 445.44
  C 565.90 453.84 564.98 457.76 567.31 464.66
  A 0.43 0.42 67.1 0 0 567.91 464.91
  C 575.93 460.80 580.11 458.02 586.82 456.77
  L 491.24 505.61
  L 481.69 507.27
  A 0.68 0.68 0.0 0 1 480.96 506.91
  Q 479.65 504.40 481.11 501.65
  C 485.13 494.12 488.17 488.67 489.57 481.84
  Q 491.52 472.32 491.89 458.20
  A 0.96 0.94 -17.3 0 1 492.30 457.44
  Q 493.39 456.67 495.37 455.65
  Q 507.39 449.47 511.67 447.55
  C 518.54 444.46 524.60 440.41 530.40 437.65
  Q 543.93 431.22 557.03 423.52
  Q 566.58 417.53 577.52 412.51
  Z"
/>
<path fill="#1c7c8d" d="
  M 623.60 384.89
  C 621.92 395.50 620.53 406.50 621.54 417.21
  Q 622.44 426.70 628.65 433.66
  A 1.02 1.00 66.6 0 0 629.46 433.99
  L 631.63 433.82
  L 627.57 435.81
  Q 624.12 436.86 622.23 437.78
  Q 609.93 443.76 599.47 448.56
  A 0.36 0.36 0.0 0 1 598.96 448.27
  Q 595.68 414.90 594.63 389.49
  Q 594.33 382.16 594.72 371.03
  L 623.60 384.89
  Z"
/>
<path fill="#f7f7f5" d="
  M 441.63 730.00
  A 0.67 0.67 0.0 0 1 442.31 729.33
  L 463.34 729.41
  A 18.14 14.99 0.2 0 1 481.42 744.46
  L 481.42 746.62
  A 18.14 14.99 0.2 0 1 463.22 761.55
  L 442.19 761.47
  A 0.67 0.67 0.0 0 1 441.53 760.80
  L 441.63 730.00
  Z"
/>
</svg>
