<?xml version="1.0" encoding="UTF-8" standalone="no"?>
<!DOCTYPE svg PUBLIC "-//W3C//DTD SVG 1.1//EN" "http://www.w3.org/Graphics/SVG/1.1/DTD/svg11.dtd">
<svg xmlns="http://www.w3.org/2000/svg" version="1.1" viewBox="0.00 0.00 1024.00 1024.00">
<path fill="#d9dee2" d="
  M 1024.00 0.00
  L 1024.00 1024.00
  L 0.00 1024.00
  L 0.00 0.00
  L 1024.00 0.00
  Z"
/>
<g stroke-width="2.00" fill="none" stroke-linecap="butt">
<path stroke="#83b9c0" vector-effect="non-scaling-stroke" d="
  M 864.03 226.21
  Q 852.07 226.72 840.12 227.90
  Q 778.92 233.91 721.65 249.72
  Q 718.95 250.47 716.88 252.39
  C 698.84 269.06 682.88 287.13 667.44 305.48
  C 659.66 314.74 652.03 324.92 644.14 334.88
  Q 636.62 344.39 627.19 357.37
  Q 596.63 399.41 574.72 431.94
  Q 550.91 467.27 517.25 519.26"
/>
<path stroke="#d7dbdd" vector-effect="non-scaling-stroke" d="
  M 517.25 519.26
  C 518.11 516.89 521.28 508.89 515.29 510.00
  Q 507.30 511.47 501.17 512.26
  A 0.88 0.87 10.0 0 0 500.51 512.72
  Q 495.82 522.09 491.80 532.68
  Q 491.23 534.20 489.33 536.75"
/>
<path stroke="#8d98a4" vector-effect="non-scaling-stroke" d="
  M 489.33 536.75
  C 494.65 519.99 502.25 505.68 511.26 488.52
  Q 536.65 440.17 567.59 395.82
  C 589.60 364.26 612.63 333.18 637.97 305.97
  Q 640.42 303.34 643.79 300.37
  A 0.60 0.59 39.7 0 0 643.70 299.41
  Q 572.31 256.46 488.84 263.43"
/>
<path stroke="#88929d" vector-effect="non-scaling-stroke" d="
  M 488.84 263.43
  C 442.19 267.04 397.53 283.40 360.56 312.28
  Q 309.63 352.06 282.99 410.50
  C 270.58 437.72 263.78 468.36 261.85 497.74"
/>
<path stroke="#8d98a4" vector-effect="non-scaling-stroke" d="
  M 261.85 497.74
  C 258.44 550.34 272.14 602.19 300.90 646.32"
/>
<path stroke="#797d83" vector-effect="non-scaling-stroke" d="
  M 300.90 646.32
  L 314.54 665.37
  A 1.48 1.48 0.0 0 1 314.48 667.16
  Q 296.42 689.11 276.76 708.51
  Q 261.80 723.27 247.57 732.59
  Q 229.77 744.26 207.95 748.15"
/>
<path stroke="#88929d" vector-effect="non-scaling-stroke" d="
  M 207.95 748.15
  Q 196.02 750.07 184.00 751.22
  Q 174.03 752.18 164.05 752.01"
/>
<path stroke="#b6d6d7" vector-effect="non-scaling-stroke" d="
  M 164.05 752.01
  Q 163.24 751.77 162.51 751.90
  A 0.19 0.19 0.0 0 0 162.48 752.27
  Q 163.15 752.49 164.05 752.19"
/>
<path stroke="#88929d" vector-effect="non-scaling-stroke" d="
  M 164.05 752.19
  Q 197.92 755.74 232.06 754.63"
/>
<path stroke="#8d98a4" vector-effect="non-scaling-stroke" d="
  M 232.06 754.63
  L 238.95 754.34"
/>
<path stroke="#828e9b" vector-effect="non-scaling-stroke" d="
  M 489.33 536.75
  L 488.13 540.47"
/>
<path stroke="#557d8a" vector-effect="non-scaling-stroke" d="
  M 488.13 540.47
  L 483.07 533.13"
/>
<path stroke="#608994" vector-effect="non-scaling-stroke" d="
  M 483.07 533.13
  Q 472.08 513.21 464.28 491.95
  Q 456.00 469.38 449.34 443.36
  A 1.79 1.76 -0.7 0 0 448.01 442.08
  L 357.78 421.95
  A 0.21 0.21 0.0 0 0 357.55 422.25
  L 396.35 495.81"
/>
<path stroke="#233040" vector-effect="non-scaling-stroke" d="
  M 396.35 495.81
  Q 400.38 505.67 402.42 515.49
  Q 404.07 523.43 403.27 528.59
  C 401.16 542.16 394.17 553.40 387.42 565.09
  Q 375.34 586.01 361.74 605.99"
/>
<path stroke="#2c3b4d" vector-effect="non-scaling-stroke" d="
  M 361.74 605.99
  L 350.60 621.47"
/>
<path stroke="#33455a" vector-effect="non-scaling-stroke" d="
  M 350.60 621.47
  L 346.22 626.99
  A 1.48 1.46 5.6 0 1 345.70 627.41
  C 331.61 634.46 318.54 641.92 303.13 647.90"
/>
<path stroke="#233040" vector-effect="non-scaling-stroke" d="
  M 303.13 647.90
  Q 301.03 644.54 300.90 646.32"
/>
<path stroke="#33455a" vector-effect="non-scaling-stroke" d="
  M 261.85 497.74
  Q 262.23 498.38 262.90 497.50
  A 1.71 1.65 66.9 0 0 263.24 496.61
  C 263.51 492.84 263.53 489.77 264.09 485.42
  Q 265.84 471.99 265.95 471.32
  C 267.88 459.22 271.57 444.72 275.47 433.11
  Q 286.07 401.54 304.20 374.62
  Q 306.11 371.79 309.28 367.01
  Q 314.45 359.22 322.76 349.76
  Q 328.95 342.71 333.13 338.29
  Q 337.34 333.83 339.78 331.62
  C 346.04 325.97 349.75 322.17 355.56 317.55
  Q 361.86 312.55 364.80 310.29
  C 398.72 284.20 442.15 269.07 484.73 264.98
  Q 486.88 264.78 488.84 263.43"
/>
<path stroke="#233040" vector-effect="non-scaling-stroke" d="
  M 316.07 666.14
  Q 305.49 679.47 296.09 689.59
  Q 286.74 699.66 273.77 712.51
  Q 259.47 726.67 242.15 736.90
  Q 231.82 743.00 215.04 747.96"
/>
<path stroke="#1f2939" vector-effect="non-scaling-stroke" d="
  M 215.04 747.96
  L 208.11 749.35
  A 0.38 0.38 0.0 0 1 207.68 748.84
  L 207.95 748.15"
/>
<path stroke="#5c828d" vector-effect="non-scaling-stroke" d="
  M 164.05 752.19
  Q 164.05 752.10 164.05 752.01"
/>
<path stroke="#33455a" vector-effect="non-scaling-stroke" d="
  M 232.06 754.63
  L 214.82 753.28
  A 1.48 1.47 -75.7 0 1 213.59 751.20
  L 215.04 747.96"
/>
<path stroke="#83b9c0" vector-effect="non-scaling-stroke" d="
  M 887.02 229.26
  Q 854.91 233.12 827.82 250.53
  C 807.25 263.74 788.30 282.29 772.37 300.20"
/>
<path stroke="#78afb7" vector-effect="non-scaling-stroke" d="
  M 748.26 328.44
  Q 732.42 347.64 717.72 367.67
  A 0.55 0.51 69.2 0 0 717.64 367.87
  Q 717.56 368.28 717.79 368.38"
/>
<path stroke="#225c69" vector-effect="non-scaling-stroke" d="
  M 717.79 368.38
  Q 717.61 368.37 717.44 368.39
  A 0.91 0.91 0.0 0 0 716.77 368.76
  Q 683.57 413.05 657.21 452.96
  Q 633.32 489.15 603.30 537.99"
/>
<path stroke="#25848f" vector-effect="non-scaling-stroke" d="
  M 603.30 537.99
  Q 604.55 534.13 606.67 530.65
  Q 625.89 499.15 648.21 464.50
  Q 650.76 460.53 652.67 456.92
  A 0.06 0.06 0.0 0 0 652.58 456.85
  Q 645.72 463.38 637.99 468.56
  C 623.32 478.40 604.40 480.51 586.32 479.17
  Q 568.80 477.88 550.56 471.20
  A 0.70 0.69 26.5 0 0 549.74 471.47
  Q 536.85 490.67 519.78 517.43
  C 513.41 527.41 506.02 538.24 499.30 548.39
  Q 498.71 549.28 496.72 550.77"
/>
<path stroke="#78afb7" vector-effect="non-scaling-stroke" d="
  M 496.72 550.77
  L 517.25 519.26"
/>
<path stroke="#7ebabd" vector-effect="non-scaling-stroke" d="
  M 483.07 533.13
  Q 473.97 519.63 467.95 504.08
  Q 464.89 496.16 461.57 488.91
  A 0.91 0.90 79.0 0 0 460.80 488.38
  Q 441.92 487.34 419.23 484.91
  C 410.40 483.97 402.36 483.92 394.44 488.76
  A 0.52 0.52 0.0 0 0 394.26 489.47
  L 419.33 532.79"
/>
<path stroke="#58a1a6" vector-effect="non-scaling-stroke" d="
  M 419.33 532.79
  Q 418.71 531.96 418.19 532.40"
/>
<path stroke="#4c6d73" vector-effect="non-scaling-stroke" d="
  M 418.19 532.40
  L 396.35 495.81"
/>
<path stroke="#273546" vector-effect="non-scaling-stroke" d="
  M 444.44 642.00
  Q 432.55 637.90 422.98 635.36
  C 399.68 629.18 375.22 624.13 350.60 621.47"
/>
<path stroke="#33455a" vector-effect="non-scaling-stroke" d="
  M 411.53 687.59
  Q 364.27 670.94 316.07 666.14"
/>
<path stroke="#1f2939" vector-effect="non-scaling-stroke" d="
  M 316.07 666.14
  L 303.13 647.90"
/>
<path stroke="#9fbfc3" vector-effect="non-scaling-stroke" d="
  M 488.13 540.47
  L 495.69 552.20"
/>
<path stroke="#18202c" vector-effect="non-scaling-stroke" d="
  M 458.04 621.86
  C 451.34 611.93 441.47 608.55 429.95 605.34
  Q 401.72 597.47 372.84 591.95
  A 0.78 0.76 -66.0 0 0 372.08 592.25
  L 361.74 605.99"
/>
<path stroke="#828e9b" vector-effect="non-scaling-stroke" d="
  M 281.00 751.40
  Q 324.68 746.60 367.92 738.21
  Q 369.99 737.81 371.69 735.93
  Q 393.46 711.75 411.53 687.59"
/>
<path stroke="#7d8794" vector-effect="non-scaling-stroke" d="
  M 411.53 687.59
  L 444.44 642.00"
/>
<path stroke="#767e87" vector-effect="non-scaling-stroke" d="
  M 444.44 642.00
  L 458.04 621.86"
/>
<path stroke="#6e727a" vector-effect="non-scaling-stroke" d="
  M 458.04 621.86
  L 462.47 615.91"
/>
<path stroke="#79a6ac" vector-effect="non-scaling-stroke" d="
  M 462.47 615.91
  L 465.50 622.33"
/>
<path stroke="#767e87" vector-effect="non-scaling-stroke" d="
  M 465.50 622.33
  L 409.06 736.00"
/>
<path stroke="#7d8794" vector-effect="non-scaling-stroke" d="
  M 409.06 736.00
  Q 408.30 736.94 408.15 737.85
  A 0.70 0.70 0.0 0 0 408.53 738.60
  Q 448.33 758.60 492.93 761.37"
/>
<path stroke="#828e9b" vector-effect="non-scaling-stroke" d="
  M 492.93 761.37
  Q 533.20 764.11 569.45 755.92
  Q 619.05 744.72 661.65 713.14
  Q 715.71 673.08 742.64 612.92
  Q 743.80 610.33 744.75 607.76"
/>
<path stroke="#7d8794" vector-effect="non-scaling-stroke" d="
  M 744.75 607.76
  Q 760.01 570.93 763.23 531.21"
/>
<path stroke="#767e87" vector-effect="non-scaling-stroke" d="
  M 763.23 531.21
  Q 767.73 459.64 734.91 396.35
  Q 727.32 381.73 717.79 368.38"
/>
<path stroke="#2a5d6c" vector-effect="non-scaling-stroke" d="
  M 523.39 673.74
  L 510.92 697.36
  A 0.31 0.30 43.6 0 1 510.39 697.37
  L 496.40 673.70"
/>
<path stroke="#23535f" vector-effect="non-scaling-stroke" d="
  M 496.40 673.70
  L 465.50 622.33"
/>
<path stroke="#1b4852" vector-effect="non-scaling-stroke" d="
  M 462.47 615.91
  L 418.19 532.40"
/>
<path stroke="#4c959b" vector-effect="non-scaling-stroke" d="
  M 419.33 532.79
  C 438.39 555.01 465.95 558.83 493.46 555.56
  A 1.53 1.52 7.7 0 0 494.68 554.64
  L 495.69 552.20"
/>
<path stroke="#79a6ac" vector-effect="non-scaling-stroke" d="
  M 495.69 552.20
  L 496.72 550.77"
/>
<path stroke="#273546" vector-effect="non-scaling-stroke" d="
  M 763.23 531.21
  Q 762.22 526.54 762.23 524.38
  Q 762.33 509.39 761.86 495.00
  A 1.13 1.13 0.0 0 0 761.46 494.16
  C 756.34 489.80 751.47 486.95 744.93 490.22
  Q 739.20 493.08 734.66 497.97
  C 725.62 507.70 719.86 513.89 710.14 521.37
  C 693.02 534.56 676.37 547.30 658.74 559.02
  C 642.52 569.81 632.48 576.37 616.81 587.56
  C 600.83 598.98 587.16 607.87 571.30 620.40
  Q 555.83 632.61 553.30 634.92
  C 540.77 646.30 533.18 658.38 523.39 673.74"
/>
<path stroke="#23535f" vector-effect="non-scaling-stroke" d="
  M 523.39 673.74
  Q 550.72 623.70 568.25 595.50
  Q 586.03 566.90 603.30 537.99"
/>
<path stroke="#33455a" vector-effect="non-scaling-stroke" d="
  M 744.75 607.76
  Q 745.21 603.57 745.65 602.30
  Q 749.14 592.25 751.15 584.99
  A 0.22 0.22 0.0 0 0 750.83 584.73
  C 733.68 593.88 721.59 602.95 705.05 615.21
  C 691.26 625.43 668.43 638.23 652.11 649.84
  C 638.01 659.88 622.65 671.56 607.36 682.27
  C 571.13 707.64 535.18 733.50 492.93 761.37"
/>
<path stroke="#273546" vector-effect="non-scaling-stroke" d="
  M 409.06 736.00
  Q 432.37 718.83 453.26 698.82
  Q 460.33 692.05 468.99 687.52
  Q 482.47 680.46 496.40 673.70"
/>
</g>
<g fill="#374b61">
<path d="
  M 489.33 536.75
  L 488.13 540.47
  L 483.07 533.13
  Q 472.08 513.21 464.28 491.95
  Q 456.00 469.38 449.34 443.36
  A 1.79 1.76 -0.7 0 0 448.01 442.08
  L 357.78 421.95
  A 0.21 0.21 0.0 0 0 357.55 422.25
  L 396.35 495.81
  Q 400.38 505.67 402.42 515.49
  Q 404.07 523.43 403.27 528.59
  C 401.16 542.16 394.17 553.40 387.42 565.09
  Q 375.34 586.01 361.74 605.99
  L 350.60 621.47
  L 346.22 626.99
  A 1.48 1.46 5.6 0 1 345.70 627.41
  C 331.61 634.46 318.54 641.92 303.13 647.90
  Q 301.03 644.54 300.90 646.32
  C 272.14 602.19 258.44 550.34 261.85 497.74
  Q 262.23 498.38 262.90 497.50
  A 1.71 1.65 66.9 0 0 263.24 496.61
  C 263.51 492.84 263.53 489.77 264.09 485.42
  Q 265.84 471.99 265.95 471.32
  C 267.88 459.22 271.57 444.72 275.47 433.11
  Q 286.07 401.54 304.20 374.62
  Q 306.11 371.79 309.28 367.01
  Q 314.45 359.22 322.76 349.76
  Q 328.95 342.71 333.13 338.29
  Q 337.34 333.83 339.78 331.62
  C 346.04 325.97 349.75 322.17 355.56 317.55
  Q 361.86 312.55 364.80 310.29
  C 398.72 284.20 442.15 269.07 484.73 264.98
  Q 486.88 264.78 488.84 263.43
  Q 572.31 256.46 643.70 299.41
  A 0.60 0.59 39.7 0 1 643.79 300.37
  Q 640.42 303.34 637.97 305.97
  C 612.63 333.18 589.60 364.26 567.59 395.82
  Q 536.65 440.17 511.26 488.52
  C 502.25 505.68 494.65 519.99 489.33 536.75
  Z"
/>
<path d="
  M 744.75 607.76
  Q 743.80 610.33 742.64 612.92
  Q 715.71 673.08 661.65 713.14
  Q 619.05 744.72 569.45 755.92
  Q 533.20 764.11 492.93 761.37
  C 535.18 733.50 571.13 707.64 607.36 682.27
  C 622.65 671.56 638.01 659.88 652.11 649.84
  C 668.43 638.23 691.26 625.43 705.05 615.21
  C 721.59 602.95 733.68 593.88 750.83 584.73
  A 0.22 0.22 0.0 0 1 751.15 584.99
  Q 749.14 592.25 745.65 602.30
  Q 745.21 603.57 744.75 607.76
  Z"
/>
<path d="
  M 411.53 687.59
  Q 393.46 711.75 371.69 735.93
  Q 369.99 737.81 367.92 738.21
  Q 324.68 746.60 281.00 751.40
  L 238.95 754.34
  L 232.06 754.63
  L 214.82 753.28
  A 1.48 1.47 -75.7 0 1 213.59 751.20
  L 215.04 747.96
  Q 231.82 743.00 242.15 736.90
  Q 259.47 726.67 273.77 712.51
  Q 286.74 699.66 296.09 689.59
  Q 305.49 679.47 316.07 666.14
  Q 364.27 670.94 411.53 687.59
  Z"
/>
</g>
<path fill="#238d99" d="
  M 887.02 229.26
  Q 854.91 233.12 827.82 250.53
  C 807.25 263.74 788.30 282.29 772.37 300.20
  L 748.26 328.44
  Q 732.42 347.64 717.72 367.67
  A 0.55 0.51 69.2 0 0 717.64 367.87
  Q 717.56 368.28 717.79 368.38
  Q 717.61 368.37 717.44 368.39
  A 0.91 0.91 0.0 0 0 716.77 368.76
  Q 683.57 413.05 657.21 452.96
  Q 633.32 489.15 603.30 537.99
  Q 604.55 534.13 606.67 530.65
  Q 625.89 499.15 648.21 464.50
  Q 650.76 460.53 652.67 456.92
  A 0.06 0.06 0.0 0 0 652.58 456.85
  Q 645.72 463.38 637.99 468.56
  C 623.32 478.40 604.40 480.51 586.32 479.17
  Q 568.80 477.88 550.56 471.20
  A 0.70 0.69 26.5 0 0 549.74 471.47
  Q 536.85 490.67 519.78 517.43
  C 513.41 527.41 506.02 538.24 499.30 548.39
  Q 498.71 549.28 496.72 550.77
  L 517.25 519.26
  Q 550.91 467.27 574.72 431.94
  Q 596.63 399.41 627.19 357.37
  Q 636.62 344.39 644.14 334.88
  C 652.03 324.92 659.66 314.74 667.44 305.48
  C 682.88 287.13 698.84 269.06 716.88 252.39
  Q 718.95 250.47 721.65 249.72
  Q 778.92 233.91 840.12 227.90
  Q 852.07 226.72 864.03 226.21
  Q 887.43 225.21 910.85 226.78
  A 0.29 0.29 0.0 0 1 911.11 227.13
  L 911.05 227.39
  A 0.10 0.09 3.2 0 1 910.95 227.47
  Q 898.88 227.31 887.02 229.26
  Z"
/>
<g fill="#202b39">
<path d="
  M 717.79 368.38
  Q 727.32 381.73 734.91 396.35
  Q 767.73 459.64 763.23 531.21
  Q 762.22 526.54 762.23 524.38
  Q 762.33 509.39 761.86 495.00
  A 1.13 1.13 0.0 0 0 761.46 494.16
  C 756.34 489.80 751.47 486.95 744.93 490.22
  Q 739.20 493.08 734.66 497.97
  C 725.62 507.70 719.86 513.89 710.14 521.37
  C 693.02 534.56 676.37 547.30 658.74 559.02
  C 642.52 569.81 632.48 576.37 616.81 587.56
  C 600.83 598.98 587.16 607.87 571.30 620.40
  Q 555.83 632.61 553.30 634.92
  C 540.77 646.30 533.18 658.38 523.39 673.74
  Q 550.72 623.70 568.25 595.50
  Q 586.03 566.90 603.30 537.99
  Q 633.32 489.15 657.21 452.96
  Q 683.57 413.05 716.77 368.76
  A 0.91 0.91 0.0 0 1 717.44 368.39
  Q 717.61 368.37 717.79 368.38
  Z"
/>
<path d="
  M 458.04 621.86
  L 444.44 642.00
  Q 432.55 637.90 422.98 635.36
  C 399.68 629.18 375.22 624.13 350.60 621.47
  L 361.74 605.99
  L 372.08 592.25
  A 0.78 0.76 -66.0 0 1 372.84 591.95
  Q 401.72 597.47 429.95 605.34
  C 441.47 608.55 451.34 611.93 458.04 621.86
  Z"
/>
<path d="
  M 496.40 673.70
  Q 482.47 680.46 468.99 687.52
  Q 460.33 692.05 453.26 698.82
  Q 432.37 718.83 409.06 736.00
  L 465.50 622.33
  L 496.40 673.70
  Z"
/>
</g>
<path fill="#72aeb2" d="
  M 483.07 533.13
  L 488.13 540.47
  L 495.69 552.20
  L 494.68 554.64
  A 1.53 1.52 7.7 0 1 493.46 555.56
  C 465.95 558.83 438.39 555.01 419.33 532.79
  L 394.26 489.47
  A 0.52 0.52 0.0 0 1 394.44 488.76
  C 402.36 483.92 410.40 483.97 419.23 484.91
  Q 441.92 487.34 460.80 488.38
  A 0.91 0.90 79.0 0 1 461.57 488.91
  Q 464.89 496.16 467.95 504.08
  Q 473.97 519.63 483.07 533.13
  Z"
/>
<path fill="#267b84" d="
  M 603.30 537.99
  Q 586.03 566.90 568.25 595.50
  Q 550.72 623.70 523.39 673.74
  L 510.92 697.36
  A 0.31 0.30 43.6 0 1 510.39 697.37
  L 496.40 673.70
  L 465.50 622.33
  L 462.47 615.91
  L 418.19 532.40
  Q 418.71 531.96 419.33 532.79
  C 438.39 555.01 465.95 558.83 493.46 555.56
  A 1.53 1.52 7.7 0 0 494.68 554.64
  L 495.69 552.20
  L 496.72 550.77
  Q 498.71 549.28 499.30 548.39
  C 506.02 538.24 513.41 527.41 519.78 517.43
  Q 536.85 490.67 549.74 471.47
  A 0.70 0.69 26.5 0 1 550.56 471.20
  Q 568.80 477.88 586.32 479.17
  C 604.40 480.51 623.32 478.40 637.99 468.56
  Q 645.72 463.38 652.58 456.85
  A 0.06 0.06 0.0 0 1 652.67 456.92
  Q 650.76 460.53 648.21 464.50
  Q 625.89 499.15 606.67 530.65
  Q 604.55 534.13 603.30 537.99
  Z"
/>
<g fill="#e2e5e6">
<path d="
  M 864.03 226.21
  Q 852.07 226.72 840.12 227.90
  Q 778.92 233.91 721.65 249.72
  Q 718.95 250.47 716.88 252.39
  C 698.84 269.06 682.88 287.13 667.44 305.48
  C 659.66 314.74 652.03 324.92 644.14 334.88
  Q 636.62 344.39 627.19 357.37
  Q 596.63 399.41 574.72 431.94
  Q 550.91 467.27 517.25 519.26
  C 518.11 516.89 521.28 508.89 515.29 510.00
  Q 507.30 511.47 501.17 512.26
  A 0.88 0.87 10.0 0 0 500.51 512.72
  Q 495.82 522.09 491.80 532.68
  Q 491.23 534.20 489.33 536.75
  C 494.65 519.99 502.25 505.68 511.26 488.52
  Q 536.65 440.17 567.59 395.82
  C 589.60 364.26 612.63 333.18 637.97 305.97
  Q 640.42 303.34 643.79 300.37
  A 0.60 0.59 39.7 0 0 643.70 299.41
  Q 572.31 256.46 488.84 263.43
  C 442.19 267.04 397.53 283.40 360.56 312.28
  Q 309.63 352.06 282.99 410.50
  C 270.58 437.72 263.78 468.36 261.85 497.74
  C 258.44 550.34 272.14 602.19 300.90 646.32
  L 314.54 665.37
  A 1.48 1.48 0.0 0 1 314.48 667.16
  Q 296.42 689.11 276.76 708.51
  Q 261.80 723.27 247.57 732.59
  Q 229.77 744.26 207.95 748.15
  Q 196.02 750.07 184.00 751.22
  Q 174.03 752.18 164.05 752.01
  Q 163.24 751.77 162.51 751.90
  A 0.19 0.19 0.0 0 0 162.48 752.27
  Q 163.15 752.49 164.05 752.19
  Q 197.92 755.74 232.06 754.63
  L 238.95 754.34
  L 241.25 754.59
  A 0.40 0.40 0.0 0 1 241.59 755.08
  C 236.02 777.18 219.87 793.91 197.74 798.80
  C 186.22 801.35 176.66 796.68 168.88 788.38
  Q 162.76 781.86 154.42 771.26
  Q 151.09 767.04 147.26 763.82
  A 5.91 5.90 -15.3 0 0 145.38 762.75
  C 142.35 761.69 141.07 760.83 138.84 757.99
  Q 135.41 753.65 131.51 747.46
  C 121.71 731.95 110.82 714.38 102.91 696.82
  Q 102.87 696.73 92.42 672.65
  Q 87.60 661.55 81.51 650.05
  C 77.09 641.70 74.56 633.05 71.20 622.43
  C 64.44 601.03 60.63 579.60 60.02 556.77
  C 59.71 545.28 61.06 529.65 60.15 518.00
  C 59.23 506.34 57.75 495.01 57.79 482.75
  Q 57.85 458.14 62.13 432.90
  Q 63.90 422.46 70.01 392.80
  Q 73.62 375.30 80.80 358.64
  C 91.27 334.33 100.29 313.50 113.26 291.63
  C 118.55 282.69 123.14 276.20 131.28 270.53
  Q 134.24 268.47 138.20 263.40
  Q 146.58 252.68 150.80 240.66
  Q 153.56 232.82 155.12 229.84
  Q 159.79 220.92 167.41 211.74
  C 195.04 178.47 226.69 150.10 262.72 128.13
  Q 277.19 119.30 287.13 112.71
  C 294.77 107.64 306.03 101.61 313.07 97.55
  C 320.39 93.32 326.63 88.49 332.04 84.77
  Q 337.05 81.32 345.62 77.70
  Q 371.34 66.84 399.38 60.40
  C 410.84 57.77 421.05 57.80 435.05 57.60
  C 446.19 57.43 456.86 54.73 467.65 52.32
  C 479.43 49.70 491.09 49.25 504.69 49.20
  Q 526.90 49.12 550.99 50.11
  C 562.13 50.56 572.40 51.64 583.25 53.96
  C 590.08 55.41 599.12 57.50 607.53 58.80
  Q 618.79 60.55 621.53 61.01
  C 636.58 63.59 648.78 67.06 670.37 73.04
  Q 690.16 78.52 705.88 85.83
  Q 752.29 107.41 791.80 139.71
  C 801.71 147.82 809.24 155.98 818.28 167.08
  C 829.10 180.36 842.43 193.28 851.28 206.65
  Q 851.29 206.67 856.54 215.48
  Q 859.89 221.12 864.03 226.21
  Z"
/>
<path d="
  M 887.02 229.26
  C 875.86 233.31 865.69 238.21 860.46 248.24
  C 856.59 255.67 853.80 262.20 847.53 267.39
  Q 841.80 272.13 835.05 275.78
  C 813.65 287.35 795.43 297.67 772.37 300.20
  C 788.30 282.29 807.25 263.74 827.82 250.53
  Q 854.91 233.12 887.02 229.26
  Z"
/>
<path d="
  M 984.20 507.50
  Q 982.12 512.72 981.84 515.06
  C 979.99 530.35 980.96 549.32 980.92 562.81
  Q 980.89 573.19 978.28 583.50
  Q 973.39 602.81 965.88 624.06
  Q 956.79 649.77 949.05 671.97
  Q 940.08 697.74 929.12 719.23
  C 915.19 746.53 899.05 774.54 880.39 799.10
  C 872.36 809.67 864.41 819.45 853.13 826.95
  Q 847.05 830.99 843.42 834.88
  C 838.51 840.15 833.71 848.34 829.79 853.04
  Q 820.02 864.77 807.41 874.88
  Q 785.73 892.25 759.26 909.19
  C 747.65 916.62 735.18 923.44 724.33 930.01
  Q 718.48 933.56 714.37 938.82
  Q 712.34 941.44 709.55 942.95
  C 691.36 952.83 672.87 958.21 647.65 965.05
  C 642.31 966.50 636.27 966.84 631.58 968.59
  Q 620.80 972.60 612.74 975.21
  Q 591.56 982.07 570.14 981.63
  C 559.09 981.41 548.60 978.14 537.13 977.74
  C 529.00 977.45 518.58 979.20 511.72 979.48
  Q 501.74 979.89 483.79 979.02
  C 479.99 978.84 474.71 978.68 470.18 979.10
  C 456.67 980.35 447.01 981.15 435.13 979.86
  Q 410.51 977.17 387.88 970.19
  Q 380.68 967.97 372.62 963.38
  Q 355.97 953.89 317.57 929.21
  C 306.53 922.11 296.42 913.23 296.98 898.90
  C 297.44 887.11 307.05 877.44 315.74 870.73
  Q 331.05 858.91 349.00 851.96
  Q 357.45 848.69 370.89 843.96
  C 390.98 836.89 406.66 831.58 424.62 830.37
  Q 450.43 828.62 470.39 830.61
  C 492.51 832.82 514.91 838.73 538.28 839.16
  Q 585.57 840.03 627.80 826.54
  Q 645.04 821.04 667.46 810.59
  Q 689.07 800.52 707.77 787.49
  C 722.85 776.98 736.28 763.70 749.34 749.29
  C 764.78 732.26 778.66 714.15 786.79 692.52
  Q 791.76 679.31 796.75 665.90
  C 809.89 630.57 816.88 593.63 816.98 555.98
  C 817.04 532.80 814.63 508.31 813.10 488.74
  C 811.46 467.69 813.09 444.89 821.61 425.30
  C 832.13 401.11 853.99 384.90 878.68 376.49
  C 889.77 372.70 901.49 369.61 913.55 369.21
  C 923.53 368.87 933.77 372.91 943.04 378.19
  C 953.72 384.29 961.39 391.04 966.07 402.44
  Q 970.55 413.38 975.20 425.99
  C 983.54 448.64 986.29 474.05 985.68 498.29
  Q 985.53 504.15 984.20 507.50
  Z"
/>
</g>
<g fill="#2e3e53">
<path d="
  M 488.84 263.43
  Q 486.88 264.78 484.73 264.98
  C 442.15 269.07 398.72 284.20 364.80 310.29
  Q 361.86 312.55 355.56 317.55
  C 349.75 322.17 346.04 325.97 339.78 331.62
  Q 337.34 333.83 333.13 338.29
  Q 328.95 342.71 322.76 349.76
  Q 314.45 359.22 309.28 367.01
  Q 306.11 371.79 304.20 374.62
  Q 286.07 401.54 275.47 433.11
  C 271.57 444.72 267.88 459.22 265.95 471.32
  Q 265.84 471.99 264.09 485.42
  C 263.53 489.77 263.51 492.84 263.24 496.61
  A 1.71 1.65 66.9 0 1 262.90 497.50
  Q 262.23 498.38 261.85 497.74
  C 263.78 468.36 270.58 437.72 282.99 410.50
  Q 309.63 352.06 360.56 312.28
  C 397.53 283.40 442.19 267.04 488.84 263.43
  Z"
/>
<path d="
  M 763.23 531.21
  Q 760.01 570.93 744.75 607.76
  Q 745.21 603.57 745.65 602.30
  Q 749.14 592.25 751.15 584.99
  A 0.22 0.22 0.0 0 0 750.83 584.73
  C 733.68 593.88 721.59 602.95 705.05 615.21
  C 691.26 625.43 668.43 638.23 652.11 649.84
  C 638.01 659.88 622.65 671.56 607.36 682.27
  C 571.13 707.64 535.18 733.50 492.93 761.37
  Q 448.33 758.60 408.53 738.60
  A 0.70 0.70 0.0 0 1 408.15 737.85
  Q 408.30 736.94 409.06 736.00
  Q 432.37 718.83 453.26 698.82
  Q 460.33 692.05 468.99 687.52
  Q 482.47 680.46 496.40 673.70
  L 510.39 697.37
  A 0.31 0.30 43.6 0 0 510.92 697.36
  L 523.39 673.74
  C 533.18 658.38 540.77 646.30 553.30 634.92
  Q 555.83 632.61 571.30 620.40
  C 587.16 607.87 600.83 598.98 616.81 587.56
  C 632.48 576.37 642.52 569.81 658.74 559.02
  C 676.37 547.30 693.02 534.56 710.14 521.37
  C 719.86 513.89 725.62 507.70 734.66 497.97
  Q 739.20 493.08 744.93 490.22
  C 751.47 486.95 756.34 489.80 761.46 494.16
  A 1.13 1.13 0.0 0 1 761.86 495.00
  Q 762.33 509.39 762.23 524.38
  Q 762.22 526.54 763.23 531.21
  Z"
/>
<path d="
  M 444.44 642.00
  L 411.53 687.59
  Q 364.27 670.94 316.07 666.14
  L 303.13 647.90
  C 318.54 641.92 331.61 634.46 345.70 627.41
  A 1.48 1.46 5.6 0 0 346.22 626.99
  L 350.60 621.47
  C 375.22 624.13 399.68 629.18 422.98 635.36
  Q 432.55 637.90 444.44 642.00
  Z"
/>
<path d="
  M 207.95 748.15
  L 207.68 748.84
  A 0.38 0.38 0.0 0 0 208.11 749.35
  L 215.04 747.96
  L 213.59 751.20
  A 1.48 1.47 -75.7 0 0 214.82 753.28
  L 232.06 754.63
  Q 197.92 755.74 164.05 752.19
  Q 164.05 752.10 164.05 752.01
  Q 174.03 752.18 184.00 751.22
  Q 196.02 750.07 207.95 748.15
  Z"
/>
</g>
<g fill="#89c6c7">
<path d="
  M 483.07 533.13
  Q 473.97 519.63 467.95 504.08
  Q 464.89 496.16 461.57 488.91
  A 0.91 0.90 79.0 0 0 460.80 488.38
  Q 441.92 487.34 419.23 484.91
  C 410.40 483.97 402.36 483.92 394.44 488.76
  A 0.52 0.52 0.0 0 0 394.26 489.47
  L 419.33 532.79
  Q 418.71 531.96 418.19 532.40
  L 396.35 495.81
  L 357.55 422.25
  A 0.21 0.21 0.0 0 1 357.78 421.95
  L 448.01 442.08
  A 1.79 1.76 -0.7 0 1 449.34 443.36
  Q 456.00 469.38 464.28 491.95
  Q 472.08 513.21 483.07 533.13
  Z"
/>
<path d="
  M 164.05 752.01
  Q 164.05 752.10 164.05 752.19
  Q 163.15 752.49 162.48 752.27
  A 0.19 0.19 0.0 0 1 162.51 751.90
  Q 163.24 751.77 164.05 752.01
  Z"
/>
</g>
<g fill="#ccd0d4">
<path d="
  M 281.00 751.40
  Q 324.68 746.60 367.92 738.21
  Q 369.99 737.81 371.69 735.93
  Q 393.46 711.75 411.53 687.59
  L 444.44 642.00
  L 458.04 621.86
  L 462.47 615.91
  L 465.50 622.33
  L 409.06 736.00
  Q 408.30 736.94 408.15 737.85
  A 0.70 0.70 0.0 0 0 408.53 738.60
  Q 448.33 758.60 492.93 761.37
  Q 533.20 764.11 569.45 755.92
  Q 619.05 744.72 661.65 713.14
  Q 715.71 673.08 742.64 612.92
  Q 743.80 610.33 744.75 607.76
  Q 760.01 570.93 763.23 531.21
  Q 767.73 459.64 734.91 396.35
  Q 727.32 381.73 717.79 368.38
  Q 717.56 368.28 717.64 367.87
  A 0.55 0.51 69.2 0 1 717.72 367.67
  Q 732.42 347.64 748.26 328.44
  Q 764.97 328.63 775.35 326.57
  Q 797.47 322.19 801.83 321.44
  C 816.02 318.98 838.15 319.05 834.02 340.68
  Q 832.20 350.25 826.83 361.14
  C 817.80 379.48 807.68 397.05 800.85 416.02
  Q 794.17 434.59 792.57 456.73
  Q 790.80 481.34 792.24 505.95
  Q 793.47 527.05 793.90 543.70
  Q 794.55 569.59 789.77 595.72
  Q 780.45 646.53 755.52 689.85
  C 739.59 717.53 722.26 740.45 695.76 759.60
  Q 676.57 773.47 657.23 784.71
  C 613.11 810.38 563.47 815.37 513.60 811.90
  Q 495.48 810.64 460.60 808.22
  C 434.15 806.37 408.67 808.51 383.14 812.77
  Q 382.41 812.90 380.60 812.94
  A 0.16 0.16 0.0 0 1 380.53 812.63
  L 388.03 809.57
  A 0.29 0.29 0.0 0 0 388.19 809.19
  L 388.07 808.91
  A 0.03 0.02 68.9 0 0 388.04 808.89
  Q 376.63 811.02 371.91 812.09
  Q 371.06 812.28 338.70 820.48
  C 323.67 824.29 305.32 827.90 290.88 822.51
  C 273.37 815.97 272.05 797.77 275.06 781.96
  Q 277.97 766.63 281.00 751.40
  Z"
/>
<path d="
  M 517.25 519.26
  L 496.72 550.77
  L 495.69 552.20
  L 488.13 540.47
  L 489.33 536.75
  Q 491.23 534.20 491.80 532.68
  Q 495.82 522.09 500.51 512.72
  A 0.88 0.87 10.0 0 1 501.17 512.26
  Q 507.30 511.47 515.29 510.00
  C 521.28 508.89 518.11 516.89 517.25 519.26
  Z"
/>
</g>
<g fill="#0f141f">
<path d="
  M 396.35 495.81
  L 418.19 532.40
  L 462.47 615.91
  L 458.04 621.86
  C 451.34 611.93 441.47 608.55 429.95 605.34
  Q 401.72 597.47 372.84 591.95
  A 0.78 0.76 -66.0 0 0 372.08 592.25
  L 361.74 605.99
  Q 375.34 586.01 387.42 565.09
  C 394.17 553.40 401.16 542.16 403.27 528.59
  Q 404.07 523.43 402.42 515.49
  Q 400.38 505.67 396.35 495.81
  Z"
/>
<path d="
  M 303.13 647.90
  L 316.07 666.14
  Q 305.49 679.47 296.09 689.59
  Q 286.74 699.66 273.77 712.51
  Q 259.47 726.67 242.15 736.90
  Q 231.82 743.00 215.04 747.96
  L 208.11 749.35
  A 0.38 0.38 0.0 0 1 207.68 748.84
  L 207.95 748.15
  Q 229.77 744.26 247.57 732.59
  Q 261.80 723.27 276.76 708.51
  Q 296.42 689.11 314.48 667.16
  A 1.48 1.48 0.0 0 0 314.54 665.37
  L 300.90 646.32
  Q 301.03 644.54 303.13 647.90
  Z"
/>
</g>
<path fill="#202b39" d="
  M 349.25 510.14
  A 11.72 11.72 0.0 0 1 337.53 521.86
  A 11.72 11.72 0.0 0 1 325.81 510.14
  A 11.72 11.72 0.0 0 1 337.53 498.42
  A 11.72 11.72 0.0 0 1 349.25 510.14
  Z"
/>
<ellipse fill="#e2e5e6" cx="0.00" cy="0.00" transform="translate(689.09,509.92) rotate(-150.2)" rx="10.79" ry="10.62"/>
<circle fill="#e2e5e6" cx="337.58" cy="509.91" r="10.80"/>
</svg>
